# xmcd CD database file
#
# Track frame offsets:
#	150
#	8913
#	19020
#	28957
#	37330
#	45214
#	56777
#	69845
#	77298
#	88993
#	97907
#	109143
#	119419
#	127200
#	137537
#	148794
#	160475
#	169548
#	182170
#	190912
#	202022
#	210917
#	221614
#	232000
#	239599
#	251590
#	262275
#	269505
#	283722
#	293131
#
# Disc length: 4030 seconds
#
# Revision: 1
# Processed by: cddbd v1.5.2PL0 Copyright (c) Steve Scherf et al.
# Submitted via: CDex 1.94
#
DISCID=cb0fbc1e
DTITLE=Various Artist - 60 Songs From The Cramps' Crazy Collection 2
DYEAR=1900
DGENRE=Blues
TTITLE0=Gene Summers - Straight Skirt
TTITLE1=The Ventures - Bumble Bee Twist (The Wasp)
TTITLE2=The Romans - Uh Huh
TTITLE3=Art Wood - Hey Jibb
TTITLE4=Bobby Christian - Enough Man!
TTITLE5=Sil Austin - Fallout
TTITLE6=Charlie Feathers - Wild Wild Party
TTITLE7=Gene Summers and The Rebels - Twixteen
TTITLE8=Martin Denny - Misirlou
TTITLE9=Forbidden Five - RFD Rangoon
TTITLE10=Preston Love and Orchestra - Ali Baba's Boogie
TTITLE11=The Bambinos - Algiers
TTITLE12=Marvin Rainwater - Boo Hoo
TTITLE13=Dick Penner - Cindy Lou
TTITLE14=Skip Manning - Devil Blues
TTITLE15=Red Callender Sextet - Voodoo
TTITLE16=Garry and Larry - Garlic Bread
TTITLE17=The Blenders - Don't Fuck Around With Love
TTITLE18=The Empallos - Hi-Cups
TTITLE19=The Midnighters - Sexy Ways
TTITLE20=Shades Of Rhythm - Gumbo
TTITLE21=The Voxpoppers - The Last Drag
TTITLE22=Roland Janes - Guitarville
TTITLE23=The Ventures - Ginchy
TTITLE24=Spot Barnett - Sweetmeats
TTITLE25=Young William and The Jamaicans - Limbo Drum (Part 1)
TTITLE26=Alfredito - Honeydripper Mambo (Part 2)
TTITLE27=Ike Turner Orchestra - Cuban Get Away
TTITLE28=Robby Rhines and The Rogues - Port Zibee (Part 2)
TTITLE29=Tommy Mercer and The McBrides - Volcano Rock
EXTD=
EXTT0=
EXTT1=
EXTT2=
EXTT3=
EXTT4=
EXTT5=
EXTT6=
EXTT7=
EXTT8=
EXTT9=
EXTT10=
EXTT11=
EXTT12=
EXTT13=
EXTT14=
EXTT15=
EXTT16=
EXTT17=
EXTT18=
EXTT19=
EXTT20=
EXTT21=
EXTT22=
EXTT23=
EXTT24=
EXTT25=
EXTT26=
EXTT27=
EXTT28=
EXTT29=
PLAYORDER=
